<?xml version="1.0" standalone="no"?><!DOCTYPE svg PUBLIC "-//W3C//DTD SVG 1.1//EN" "http://www.w3.org/Graphics/SVG/1.1/DTD/svg11.dtd"><svg t="1551289508908" class="icon" style="" viewBox="0 0 1024 1024" version="1.1" xmlns="http://www.w3.org/2000/svg" p-id="7440" xmlns:xlink="http://www.w3.org/1999/xlink" width="200" height="200"><defs><style type="text/css"></style></defs><path d="M500.33 493.96c24.98-25.343 24.868-65.643 0-90.51-24.822-24.823-65.054-24.958-90.51 0L206.128 607.05c-62.429 62.972-62.27 164.004 0 226.275 62.294 62.293 163.325 62.451 226.275 0l384.666-384.667c62.452-62.451 62.452-163.822 0-226.274-62.43-62.429-163.823-62.452-226.274 0l-11.269 11.36c-18.735 18.735-49.147 18.735-67.882 0-18.713-18.714-18.736-49.102 0-67.883l11.268-11.36c100.376-99.877 262.275-99.763 362.04 0 99.763 99.765 99.922 261.62 0 362.04l-384.69 384.643c-100.036 99.267-261.686 99.04-361.36-0.633-99.65-99.652-99.9-261.324-0.61-361.338l203.646-203.647c62.814-62.451 163.958-62.315 226.274 0 62.316 62.316 62.452 163.461 0 226.275L375.88 754.175c-18.735 18.735-49.146 18.735-67.882 0-18.735-18.736-18.735-49.147 0-67.882L500.33 493.959z" p-id="7441" fill="#77838F"></path></svg>