<?xml version="1.0" standalone="no"?><!DOCTYPE svg PUBLIC "-//W3C//DTD SVG 1.1//EN" "http://www.w3.org/Graphics/SVG/1.1/DTD/svg11.dtd"><svg t="1534658203471" class="icon" style="" viewBox="0 0 1024 1024" version="1.1" xmlns="http://www.w3.org/2000/svg" p-id="8101" xmlns:xlink="http://www.w3.org/1999/xlink" width="128" height="128"><defs><style type="text/css"></style></defs><path d="M413.750233 221.388202c-228.517436 0-413.750233 142.457388-413.750233 318.26941 0 86.187356 44.621371 164.545285 117.059489 221.833779-4.201156 58.434264-18.268664 129.917573-59.007149 168.428172 81.095046 0 163.9724-50.795798 216.359545-90.51582 43.539255 11.96693 90.388512 18.52328 139.338348 18.52328 228.517436 0 413.750233-142.393734 413.750233-318.26941C827.500466 363.84559 642.26767 221.388202 413.750233 221.388202z" p-id="8102"></path><path d="M963.719774 570.657052C998.538447 524.126065 1018.462112 470.020265 1018.462112 412.349848c0-175.812022-185.232797-318.26941-413.750233-318.26941-100.573134 0-192.743955 27.625785-264.418226 73.45658C374.030211 161.171629 409.294461 157.73432 445.577174 157.73432c246.085908 0 445.577174 156.779511 445.577174 350.096351 0 76.193697-30.872133 146.785852-83.513893 204.138 52.259837 39.720022 135.264499 90.643128 216.359545 90.643128C966.329583 747.86946 962.192081 626.545161 963.719774 570.657052z" p-id="8103"></path></svg>