<?xml version="1.0" standalone="no"?><!DOCTYPE svg PUBLIC "-//W3C//DTD SVG 1.1//EN" "http://www.w3.org/Graphics/SVG/1.1/DTD/svg11.dtd"><svg t="1551380207530" class="icon" style="" viewBox="0 0 1024 1024" version="1.1" xmlns="http://www.w3.org/2000/svg" p-id="4015" xmlns:xlink="http://www.w3.org/1999/xlink" width="200" height="200"><defs><style type="text/css"></style></defs><path d="M533.753 307.431c62.67 62.551 124.326 124.112 188.167 187.822-2.063 1.236-5.249 2.407-7.442 4.586-93.359 92.37-186.818 184.615-279.664 277.499-12.125 12.125-25.178 19.849-41.533 24.489-63.706 18.090-127.148 37.092-190.723 55.671-14.175 4.14-25.263 0.411-32.407-10.596-4.718-7.259-4.703-15.196-2.41-23.067 20.297-69.497 40.624-138.98 61.25-208.364 1.503-5.017 4.703-10.1 8.431-13.81 96.806-96.030 193.812-191.863 290.735-287.763 2.093-2.080 3.878-4.485 5.594-6.467zM274.767 645.452c-0.973 2.905-1.733 4.985-2.358 7.113-8.581 29.104-16.107 58.576-26.107 87.186-5.212 14.915-3.775 25.41 9.241 34.271 2.407 1.635 4.485 3.942 6.284 6.268 2.837 3.713 6.006 3.815 10.213 2.542 23.794-7.193 47.669-14.153 71.53-21.167 11.934-3.516 23.873-6.998 36.649-10.724-1.996-2.279-3.087-4.075-4.647-5.199-9.819-7.111-14.171-16.55-13.282-28.695 0.345-4.522-0.267-9.125-0.529-13.693-0.775-12.673-1.584-25.346-2.41-38.317-17.457-1.434-34.037-3.165-50.655-4.023-12.131-0.627-23.579-1.837-30.988-13.17-0.463-0.707-1.371-1.137-2.935-2.389z" p-id="4016"></path><path d="M813.674 389.667c-59.252-59.168-118.39-118.239-178.17-177.94 14.373-13.070 25.957-30.176 44.849-39.285 22.769-10.957 51.068-5.775 71.26 14.074 29.324 28.841 58.528 57.833 87.239 87.303 26.546 27.223 26.1 63.987-0.33 91.211-8.268 8.499-16.828 16.701-24.85 24.635z" p-id="4017"></path><path d="M789.487 424.681c-13.313 12.475-27.142 25.41-40.642 38.048-62.169-62.169-123.946-123.932-186.053-186.037 13.612-12.755 27.422-25.707 40.622-38.085 62.074 62.058 123.798 123.787 186.073 186.073z" p-id="4018"></path></svg>