<?xml version="1.0" standalone="no"?><!DOCTYPE svg PUBLIC "-//W3C//DTD SVG 1.1//EN" "http://www.w3.org/Graphics/SVG/1.1/DTD/svg11.dtd"><svg t="1579529114555" class="icon" viewBox="0 0 1024 1024" version="1.1" xmlns="http://www.w3.org/2000/svg" p-id="9668" xmlns:xlink="http://www.w3.org/1999/xlink" width="100" height="100"><defs><style type="text/css"></style></defs><path d="M859.91 609.925v45.6c-0.68 2.22-1.51 4.435-1.964 6.705-4.66 24.1-7.285 48.83-14.316 72.22-20.85 69.02-59.92 126.54-114.694 173.5-42.245 36.25-89.786 62.366-144.135 75.22-17.87 4.236-36.194 6.73-54.32 10.036h-45.575c-2.22-0.685-4.49-1.72-6.754-1.87-48.126-2.996-93.726-15.525-136.5-37.385-80.866-41.186-139.196-102.515-165.836-190.74-5.675-18.855-8.04-38.62-11.975-57.976v-43.51c1.715-10.69 3.2-21.474 5.22-32.16 8.62-46.685 29.366-88.025 56.84-126.19 25.915-35.92 53.44-70.704 78.016-107.535 26.569-39.95 39.424-84.294 31.89-132.915-1.485-9.605-2.875-19.21-4.336-28.764 0.98-0.251 1.965-0.45 2.95-0.731 59.31 62.16 68.966 138.465 60.495 220.92 2.17-2.32 3.986-3.935 5.37-5.8 50.34-68.084 71.965-143.3 55.555-227.546-10.43-53.59-32.994-101.766-70.324-141.816C369.306 61.846 349.695 47.656 331.62 32h18.655c1.536 0.63 2.976 1.715 4.535 1.865 32.82 2.82 63.65 12.955 93.02 27.2C515 93.581 569.45 141.65 615 200.285c66.95 86.28 110.485 181.995 119.106 292.2 3.305 42.07-0.986 82.956-12.2 123.29-4.236 15.275-10.21 30.045-15.68 45.95 21.725-9.251 38.24-23.39 50.995-41.716 38.04-54.775 48.675-115.855 40.055-183.38 2.8 3.25 4.236 4.535 5.215 6.145 22.914 36.2 40.055 74.814 49.005 116.784 3.554 16.612 5.619 33.607 8.414 50.367m-358.345-80.31c-0.855 0.606-1.79 1.236-2.67 1.841-1.185 16.64-2.07 33.3-3.68 49.935-2.37 25.385-8.445 49.86-20.32 72.625-14.52 27.88-38.79 45.22-65.69 59.01-29.01 14.97-47.285 36.35-49.656 70.101-2.469 34.71 7.966 63.87 35.945 85.2 26.216 19.961 56.841 26.471 89.306 25.386 51.83-1.69 90.445-26.321 105.925-78.196 11.116-37.23 9.3-74.714 1.865-112.194-10.16-51.375-28.765-99.265-60.6-141.235-8.945-11.728-20.24-21.684-30.425-32.473" p-id="9669"></path></svg>