<?xml version="1.0" standalone="no"?><!DOCTYPE svg PUBLIC "-//W3C//DTD SVG 1.1//EN" "http://www.w3.org/Graphics/SVG/1.1/DTD/svg11.dtd"><svg t="1545140659621" class="icon" style="" viewBox="0 0 1024 1024" version="1.1" xmlns="http://www.w3.org/2000/svg" p-id="3639" xmlns:xlink="http://www.w3.org/1999/xlink" width="200" height="200"><defs><style type="text/css"></style></defs><path d="M311.570643 137.399323c16.758686 11.614525 35.110659 26.842345 49.296753 46.635133 14.186094 19.818371 40.432875 45.50745 40.432875 45.50745L614.447788 229.541907c0 0 22.60995-22.298865 36.217876-40.009226 13.522991-17.599843 25.136493-34.400484 50.6731-50.184983 21.457708-13.032828 32.406061-45.617967 4.967128-56.035224-23.763217-9.133008-33.516348 9.665127-61.045331 10.152221-27.176966 0.399089-30.899754-21.612227-57.81066-31.252795-26.90886-9.79918-41.362037-1.175779-57.409524 13.542434-15.960507 14.85022-22.033829 15.626909-22.033829 15.626909s-19.018146-10.79588-29.569456-22.033829c-10.41828-11.325953-37.591153-15.471366-55.415101-4.677533-22.697955 13.94357-27.571962 24.515347-46.458101 28.306696-21.456684 4.278443-55.238069-20.880563-73.903174-6.161327C283.906583 101.423971 294.811957 125.540228 311.570643 137.399323zM747.26884 409.243685c-79.443353-64.237023-122.002658-125.371382-122.002658-125.371382l-232.392838 0c0 0-44.552705 63.860447-115.749234 123.420961-81.702813 68.537979-147.936307 178.125887-122.933867 309.37207 22.031782 116.9025 137.25299 249.301949 355.722724 249.301949 211.55116 0 335.682295-109.721961 359.356484-243.694231C898.173758 558.731324 814.828538 463.860607 747.26884 409.243685zM623.580796 488.820068c-23.408129-18.664082-49.919946-28.019147-79.620385-28.019147-32.184003 0-59.183937 7.491625-81.038688 22.453385-13.034874 8.890484-24.828478 21.458731-35.33374 37.70474-10.728342 16.823154-17.069771 32.807197-18.97312 47.967478l195.990766 0-7.756661 37.149085L404.046824 606.075609c-0.223081 3.880377-0.309038 7.582699-0.309038 11.084453 0 14.229073 0.085958 22.740934 0.309038 25.51307l185.042413 0-8.067746 37.152155L410.076144 679.825286c8.024767 42.313711 27.395954 72.327282 58.030671 90.081645 22.033829 12.745279 45.88505 19.128663 71.552639 19.128663 35.863812 0 63.792908-9.04398 83.921341-27.175943l0 57.120952c-23.941272 10.707876-50.362015 16.072047-79.31237 16.072047-86.578868 0-145.098679-34.756595-175.597297-104.226806-6.118348-14.052041-11.394515-31.054273-15.782451-51.002604l-43.977607 0 8.067746-37.152155 30.144554 0c-0.576121-7.780197-0.88516-16.181541-0.88516-25.248034 0-3.678786 0.088004-7.469112 0.310062-11.349489l-37.636179 0 8.067746-37.149085 33.335223 0c11.838629-60.246129 42.781362-103.494119 92.789313-129.738853 30.853705-16.268522 64.85817-24.40483 102.008278-24.40483 35.641755 0 65.612347 7.491625 89.99364 22.475897L623.580796 488.820068z" p-id="3640"></path></svg>