<?xml version="1.0" standalone="no"?><!DOCTYPE svg PUBLIC "-//W3C//DTD SVG 1.1//EN" "http://www.w3.org/Graphics/SVG/1.1/DTD/svg11.dtd"><svg t="1551882501343" class="icon" style="" viewBox="0 0 1024 1024" version="1.1" xmlns="http://www.w3.org/2000/svg" p-id="1797" xmlns:xlink="http://www.w3.org/1999/xlink" width="200" height="200"><defs><style type="text/css"></style></defs><path d="M956.67712 843.67872c-2.69312 50.048-68.03456 38.34368-102.16448 38.34368H127.86688c-13.4912 0-26.38848 1.21344-38.8352-5.23264-20.09088-10.41408-18.99008-31.89248-18.99008-50.77504v-68.4032V292.8128 180.48512c0-49.51552 67.21024-38.39488 99.28704-38.39488h663.45984c30.8736 0 68.70016-5.96992 98.94912 2.34496 38.00064 10.44992 24.9344 90.77248 24.9344 118.53312v226.16576l0.00512 354.54464c0 33.01376 51.2 33.01376 51.2 0V499.32288 270.09536c0-37.52448 7.49056-86.95296-6.6048-122.88-22.44608-57.21088-77.39904-56.32512-127.80032-56.32512H109.07136c-50.88256 0-87.5776 40.45312-90.21952 89.54368-0.53248 9.9072 0 19.9936 0 29.91104v613.8368c0 18.16064-0.23552 35.2768 6.6048 52.71552 13.97248 35.61984 48.81408 56.33024 86.3232 56.33024h794.75712c54.46656 0 98.24256-32.0256 101.34528-89.54368 1.77152-33.01376-49.43872-32.83968-51.20512-0.00512z" p-id="1798"></path><path d="M664.8576 335.2576c-1.4848 45.8752-36.16256 80.54784-82.03264 82.03264-45.85984 1.4848-80.62464-38.38976-82.03264-82.03264-1.4848-45.86496 38.38976-80.62464 82.03264-82.03264 45.85984-1.4848 80.62464 38.38976 82.03264 82.03264 1.06496 32.93184 52.27008 33.03424 51.2 0-2.40128-74.2144-59.02336-130.83648-133.23264-133.23264-74.17344-2.40128-130.94912 62.63296-133.23264 133.23264-2.40128 74.17344 62.63296 130.94912 133.23264 133.23264 74.17344 2.40128 130.94912-62.63296 133.23264-133.23264 1.07008-33.03424-50.13504-32.92672-51.2 0zM62.55616 700.80512l229.46304-186.02496h-36.20352l445.44512 389.93408c24.7296 21.65248 61.09184-14.4128 36.1984-36.1984l-445.44-389.9392c-11.34592-9.9328-24.79616-9.24672-36.20352 0L26.35264 664.60672c-25.66144 20.79744 10.79808 56.79104 36.20352 36.1984z" p-id="1799"></path><path d="M600.92416 751.11424l164.69504-185.1392h-36.1984c78.24384 75.37152 156.4928 150.7328 234.74688 226.0992 23.77728 22.90176 60.02176-13.2608 36.1984-36.1984-78.24384-75.37152-156.4928-150.7328-234.74688-226.0992-9.59488-9.24672-26.79808-10.5728-36.1984 0a2831453.4144 2831453.4144 0 0 0-164.69504 185.1392c-21.86752 24.576 14.21312 60.91776 36.1984 36.1984z" p-id="1800"></path></svg>