<?xml version="1.0" standalone="no"?><!DOCTYPE svg PUBLIC "-//W3C//DTD SVG 1.1//EN" "http://www.w3.org/Graphics/SVG/1.1/DTD/svg11.dtd"><svg t="1537458168470" class="icon" style="" viewBox="0 0 1024 1024" version="1.1" xmlns="http://www.w3.org/2000/svg" p-id="9889" xmlns:xlink="http://www.w3.org/1999/xlink" width="128" height="128"><defs><style type="text/css"></style></defs><path d="M510.340709 900.892171c-23.173792 0-247.254314-180.180685-332.157006-289.301965-58.338686-53.264111-105.562221-152.650679-105.562221-222.732827 0-148.765185 108.952434-269.77626 242.874563-269.77626 81.781608 0 151.191444 67.679425 194.013739 137.605008 42.822294-69.925582 112.207571-137.605008 194.013739-137.605008 133.922129 0 242.874563 121.011074 242.874563 269.77626 0 70.239737-47.445592 169.805384-106.055454 223.182059C754.630505 722.553437 534.862195 900.892171 510.340709 900.892171zM315.497069 165.0685c-108.570741 0-196.887182 100.397594-196.887182 223.788879 0 58.382689 42.059931 145.353482 91.864244 189.903118 1.033539 0.943488 2.022053 1.977028 2.874467 3.098571 83.937714 109.042485 251.138784 234.421031 297.17119 267.923052 48.054459-34.715663 213.05542-161.193239 294.611901-267.451308 0.899486-1.12359 1.888-2.178619 2.964518-3.142573 50.03251-44.663222 92.312452-131.813095 92.312452-190.33086 0-123.391285-88.316441-223.788879-196.885136-223.788879-70.487378 0-137.808646 75.135234-173.241646 149.597133-7.634888 16.033162-33.908274 16.033162-41.543162 0C453.303668 240.203734 385.983423 165.0685 315.497069 165.0685z" p-id="9890"></path></svg>