<?xml version="1.0" standalone="no"?><!DOCTYPE svg PUBLIC "-//W3C//DTD SVG 1.1//EN" "http://www.w3.org/Graphics/SVG/1.1/DTD/svg11.dtd"><svg t="1538581807446" class="icon" style="" viewBox="0 0 1024 1024" version="1.1" xmlns="http://www.w3.org/2000/svg" p-id="2807" xmlns:xlink="http://www.w3.org/1999/xlink" width="128" height="128"><defs><style type="text/css"></style></defs><path d="M262.4 1017.6c-64 0-128-25.6-179.2-76.8-102.4-102.4-102.4-262.4 0-364.8l134.4-134.4 89.6 89.6-134.4 134.4c-51.2 51.2-51.2 128 0 179.2 51.2 51.2 128 51.2 179.2 0l179.2-179.2c25.6-25.6 38.4-57.6 38.4-89.6S556.8 512 537.6 486.4L467.2 422.4l89.6-89.6 70.4 70.4C672 448 697.6 512 697.6 582.4c0 70.4-25.6 134.4-76.8 179.2l-179.2 179.2C396.8 992 326.4 1017.6 262.4 1017.6z" p-id="2808"></path><path d="M467.2 691.2 396.8 627.2c-102.4-102.4-102.4-262.4 0-364.8l179.2-179.2c102.4-102.4 262.4-102.4 364.8 0 102.4 102.4 102.4 262.4 0 364.8l-134.4 134.4-89.6-89.6 134.4-134.4c51.2-51.2 51.2-128 0-179.2-51.2-51.2-134.4-51.2-179.2 0L486.4 352c-51.2 51.2-51.2 128 0 179.2l70.4 70.4L467.2 691.2z" p-id="2809"></path></svg>