<?xml version="1.0" standalone="no"?><!DOCTYPE svg PUBLIC "-//W3C//DTD SVG 1.1//EN" "http://www.w3.org/Graphics/SVG/1.1/DTD/svg11.dtd"><svg t="1538485452319" class="icon" style="" viewBox="0 0 1024 1024" version="1.1" xmlns="http://www.w3.org/2000/svg" p-id="2592" xmlns:xlink="http://www.w3.org/1999/xlink" width="128" height="128"><defs><style type="text/css"></style></defs><path d="M857.884444 605.297778v-179.768889c0-157.013333-104.675556-291.271111-252.586666-325.404445-11.377778-43.235556-50.062222-72.817778-93.297778-72.817777-45.511111 0-84.195556 34.133333-93.297778 77.368889C279.893333 145.635556 182.044444 277.617778 182.044444 425.528889v168.391111a170.211556 170.211556 0 0 0-79.644444 143.36v2.275556c0 22.755556 4.551111 45.511111 13.653333 65.991111l2.275556 2.275555c6.826667 15.928889 20.48 27.306667 36.408889 31.857778 4.551111 2.275556 11.377778 2.275556 20.48 2.275556h675.84c4.551111 0 9.102222 0 13.653333-2.275556 20.48-2.275556 36.408889-15.928889 43.235556-31.857778 9.102222-20.48 13.653333-45.511111 13.653333-68.266666v-2.275556c0-52.337778-22.755556-100.124444-63.715556-131.982222zM589.368889 894.293333H409.6c0 56.888889 45.511111 102.4 102.4 102.4s102.4-45.511111 102.4-102.4h-25.031111z" fill="" p-id="2593"></path></svg>