<?xml version="1.0" standalone="no"?><!DOCTYPE svg PUBLIC "-//W3C//DTD SVG 1.1//EN" "http://www.w3.org/Graphics/SVG/1.1/DTD/svg11.dtd"><svg t="1579528975353" class="icon" viewBox="0 0 1024 1024" version="1.1" xmlns="http://www.w3.org/2000/svg" p-id="8918" xmlns:xlink="http://www.w3.org/1999/xlink" width="100" height="100"><defs><style type="text/css"></style></defs><path d="M1004.359265 266.775474L757.224526 19.640735a66.916326 66.916326 0 0 0-94.717064 0 66.916326 66.916326 0 0 0 0 94.717064l8.498937 8.39654a13.362786 13.362786 0 0 1-1.740746 20.376968L337.909525 377.261649a24.063254 24.063254 0 0 1-30.872643-2.662318l-65.533969-65.48277a66.916326 66.916326 0 0 0-94.717063 0 66.916326 66.916326 0 0 0 0 94.717064l473.380525 473.278129c26.162389 26.162389 68.605873 26.162389 94.717064 0a66.916326 66.916326 0 0 0 0-94.717064l-65.533969-65.48277a24.063254 24.063254 0 0 1-2.611119-30.872643l234.027945-331.407327a13.362786 13.362786 0 0 1 20.376969-1.740746l8.447738 8.447738a66.916326 66.916326 0 1 0 94.717063-94.614666M300.534683 655.422626l67.889096 67.889095c6.604595 6.604595 6.14381 17.40746-0.921572 23.55127-90.109207 76.797619-211.807834 186.259826-237.919024 206.687993-56.625445 44.440222-107.926254 64.356405-125.231318 70.295421a3.327897 3.327897 0 0 1-4.19827-4.19827c5.887817-17.305064 25.855198-68.605873 70.244223-125.282516l206.739191-238.07262a16.025103 16.025103 0 0 1 23.397674-0.870373" p-id="8919"></path></svg>