<?xml version="1.0" standalone="no"?><!DOCTYPE svg PUBLIC "-//W3C//DTD SVG 1.1//EN" "http://www.w3.org/Graphics/SVG/1.1/DTD/svg11.dtd"><svg t="1551287719694" class="icon" style="" viewBox="0 0 1255 1024" version="1.1" xmlns="http://www.w3.org/2000/svg" p-id="2806" xmlns:xlink="http://www.w3.org/1999/xlink" width="245.1171875" height="200"><defs><style type="text/css"></style></defs><path d="M627.637513 1023.994903a180.671667 180.671667 0 0 1-109.30919-36.813976 2523.173281 2523.173281 0 0 1-453.09509-446.298664C-28.783998 416.847483-28.217629 189.1672 113.374587 81.557116c212.388323-161.415126 413.449269-50.406829 514.829295 56.636886 101.380026-104.778239 302.440972-215.786536 514.829296-56.636886 141.025847 107.610084 141.592216 335.290366 47.574984 459.891516a2523.73965 2523.73965 0 0 1-453.095089 446.298664 180.671667 180.671667 0 0 1-109.87556 36.247607zM336.523918 82.689854A283.184431 283.184431 0 0 0 162.648678 147.255904c-99.68092 75.893428-100.813657 252.600512-31.150288 344.352268a2435.386107 2435.386107 0 0 0 434.971286 430.440336 97.415444 97.415444 0 0 0 118.937461 0 2435.386107 2435.386107 0 0 0 436.670393-429.873967c69.097001-91.751756 67.964263-268.458841-31.716656-344.352268-231.644865-178.406192-421.944802 65.132419-429.873967 75.893428a41.344927 41.344927 0 0 1-32.849394 16.424697 41.344927 41.344927 0 0 1-32.849394-15.858329c-5.663689-8.495533-110.441928-141.592216-258.264201-141.592215z" fill="#77838F" p-id="2807"></path></svg>