<?xml version="1.0" standalone="no"?><!DOCTYPE svg PUBLIC "-//W3C//DTD SVG 1.1//EN" "http://www.w3.org/Graphics/SVG/1.1/DTD/svg11.dtd"><svg t="1552830802345" class="icon" style="" viewBox="0 0 1024 1024" version="1.1" xmlns="http://www.w3.org/2000/svg" p-id="2513" xmlns:xlink="http://www.w3.org/1999/xlink" width="200" height="200"><defs><style type="text/css"></style></defs><path d="M95.97333 584.90852c-35.267225 83.021855-40.998763 162.233941-12.68081 177.053462 19.536962 10.193153 50.127677-13.019525 78.783321-55.634088 11.339256 46.422286 39.411615 88.465844 79.508845 122.155131-42.051745 15.515369-69.530586 40.896432-69.530586 69.634963 0 47.239907 74.340125 85.475743 166.101016 85.475743 82.743516 0 151.292752-31.028691 163.922397-71.885214 3.417843-0.039909 16.477276-0.039909 19.751856 0 12.713556 40.814568 81.322144 71.885214 164.014494 71.885214 91.759867 0 166.082596-38.275745 166.082596-85.475743 0-28.696576-27.449165-54.119595-69.53161-69.634963 40.058344-33.731242 68.242244-75.732845 79.540567-122.155131 28.635177 42.615587 59.175751 65.827241 78.721923 55.634088 28.330232-14.81952 22.720468-94.074585-12.648065-177.053462-27.715225-65.212234-65.295122-113.27181-94.052073-123.874285 0.407276-4.136204 0.611937-8.351202 0.611937-12.549827 0-25.193799-6.978948-48.487318-18.97312-67.483974 0.203638-1.472538 0.203638-2.988054 0.203638-4.460592 0-11.585873-2.742461-22.474874-7.449669-31.868825C801.083489 175.086667 690.655448 40.405245 512.005628 40.405245c-178.781826 0-289.240567 134.681422-296.424176 304.265772-4.759397 9.475815-7.512091 20.324908-7.512091 31.868825 0 1.472538 0.122797 2.988054 0.163729 4.460592-11.862165 18.996656-18.86158 42.247196-18.86158 67.483974 0 4.198625 0.152473 8.373715 0.511653 12.549827C161.33906 471.63671 123.6159 519.77815 95.97333 584.90852L95.97333 584.90852zM95.97333 584.90852" p-id="2514"></path></svg>