<?xml version="1.0" standalone="no"?><!DOCTYPE svg PUBLIC "-//W3C//DTD SVG 1.1//EN" "http://www.w3.org/Graphics/SVG/1.1/DTD/svg11.dtd"><svg t="1551288141426" class="icon" style="" viewBox="0 0 1024 1024" version="1.1" xmlns="http://www.w3.org/2000/svg" p-id="4308" xmlns:xlink="http://www.w3.org/1999/xlink" width="200" height="200"><defs><style type="text/css"></style></defs><path d="M116.77696 250.42944A387.35872 387.35872 0 0 0 61.44 450.56a388.58752 388.58752 0 0 0 162.07872 316.04736 387.6864 387.6864 0 0 0 118.66112 57.7536 20.48 20.48 0 1 0 11.38688-39.3216 346.7264 346.7264 0 0 1-106.0864-51.69152A347.62752 347.62752 0 0 1 102.4 450.56c0-63.97952 17.28512-125.41952 49.52064-179.03616a20.48 20.48 0 1 0-35.14368-21.0944zM450.56 839.68c58.9824 0 116.1216-13.1072 168.18176-38.0928a390.38976 390.38976 0 0 0 126.27968-96.6656A387.60448 387.60448 0 0 0 839.68 450.56 388.87424 388.87424 0 0 0 450.56 61.44c-79.0528 0-154.624 23.63392-218.60352 67.1744-23.42912 15.93344-45.056 34.4064-64.512 55.00928a20.48 20.48 0 1 0 29.77792 28.09856c17.408-18.432 36.78208-34.97984 57.7536-49.23392A346.39872 346.39872 0 0 1 450.56 102.4a347.91424 347.91424 0 0 1 348.16 348.16c0 84.7872-30.39232 164.78208-84.70528 227.61472a349.42976 349.42976 0 0 1-113.00864 86.4256A346.68544 346.68544 0 0 1 450.56 798.72a20.48 20.48 0 1 0 0 40.96zM763.74016 792.73984l173.79328 173.75232a20.48 20.48 0 0 0 28.95872-28.95872l-173.75232-173.79328a20.48 20.48 0 0 0-28.99968 28.99968z" p-id="4309" fill="#77838F"></path></svg>