<?xml version="1.0" standalone="no"?><!DOCTYPE svg PUBLIC "-//W3C//DTD SVG 1.1//EN" "http://www.w3.org/Graphics/SVG/1.1/DTD/svg11.dtd"><svg t="1537458284392" class="icon" style="" viewBox="0 0 1024 1024" version="1.1" xmlns="http://www.w3.org/2000/svg" p-id="10282" xmlns:xlink="http://www.w3.org/1999/xlink" width="128" height="128"><defs><style type="text/css"></style></defs><path d="M509.606998 104.904235c-24.043602 0-45.922912 13.226233-56.177464 33.95637L356.189863 336.302419l-223.674269 32.54216c-22.983457 3.304256-42.100864 18.718317-49.481971 39.659255-7.381108 21.048385-1.812275 44.23241 14.431687 60.033281l163.916257 160.125931-38.011732 222.016513c-3.868097 22.408359 6.03239 44.819788 25.458835 57.94676 10.69662 7.116071 23.204491 10.784624 35.757388 10.784624 10.298554 0 20.663622-2.475378 30.055526-7.337105l194.987926-102.7205L704.662463 912.072815c9.369392 4.861728 19.712971 7.337105 29.990035 7.337105 12.57541 0 25.082258-3.668553 35.778878-10.784624 19.426445-13.126972 29.305443-35.538401 25.460882-57.94676l-38.012755-222.016513 163.937746-160.125931c16.22145-15.812127 21.810748-38.984896 14.408151-60.033281-7.402597-20.940938-26.51898-36.353976-49.503461-39.659255L663.04767 336.302419l-97.240695-197.441814C555.619962 118.131491 533.695626 104.904235 509.606998 104.904235L509.606998 104.904235z" p-id="10283"></path></svg>