<?xml version="1.0" standalone="no"?><!DOCTYPE svg PUBLIC "-//W3C//DTD SVG 1.1//EN" "http://www.w3.org/Graphics/SVG/1.1/DTD/svg11.dtd"><svg t="1535277909920" class="icon" style="" viewBox="0 0 1024 1024" version="1.1" xmlns="http://www.w3.org/2000/svg" p-id="1900" xmlns:xlink="http://www.w3.org/1999/xlink" width="200" height="200"><defs><style type="text/css"></style></defs><path d="M823.296 60.416q65.536 0 99.328 38.4t33.792 93.696l0 543.744q0 25.6-21.504 46.08l-171.008 163.84q-13.312 11.264-22.528 14.336t-23.552 3.072l-459.776 0q-23.552 0-47.104-9.728t-41.984-27.648-30.208-43.008-11.776-55.808l0-634.88q0-60.416 33.28-96.256t94.72-35.84l568.32 0zM608.256 702.464q13.312 0 22.528-9.216t9.216-22.528q0-14.336-9.216-23.04t-22.528-8.704l-320.512 0q-13.312 0-22.528 8.704t-9.216 23.04q0 13.312 9.216 22.528t22.528 9.216l320.512 0zM736.256 509.952q13.312 0 22.528-9.216t9.216-22.528-9.216-22.528-22.528-9.216l-448.512 0q-13.312 0-22.528 9.216t-9.216 22.528 9.216 22.528 22.528 9.216l448.512 0zM799.744 318.464q13.312 0 22.528-9.216t9.216-23.552q0-13.312-9.216-22.528t-22.528-9.216l-512 0q-13.312 0-22.528 9.216t-9.216 22.528q0 14.336 9.216 23.552t22.528 9.216l512 0z" p-id="1901"></path></svg>