<?xml version="1.0" standalone="no"?><!DOCTYPE svg PUBLIC "-//W3C//DTD SVG 1.1//EN" "http://www.w3.org/Graphics/SVG/1.1/DTD/svg11.dtd"><svg t="1551882473488" class="icon" style="" viewBox="0 0 1024 1024" version="1.1" xmlns="http://www.w3.org/2000/svg" p-id="1069" xmlns:xlink="http://www.w3.org/1999/xlink" width="200" height="200"><defs><style type="text/css"></style></defs><path d="M849.5 962l-675 0c-66.284 0-112.5-46.216-112.5-112.5l0-675c0-66.284 46.216-112.5 112.5-112.5l675 0c66.284 0 112.5 46.216 112.5 112.5l0 675c0 66.284-46.216 112.5-112.5 112.5zM99.5 212l0 75 150 0-72.858-182.135c-46.619 13.532-77.142 53.522-77.142 107.135zM249.5 99.5l75.001 187.5 112.481 0-74.982-187.5-112.5 0zM436.982 99.5l75.018 187.5 112.5 0-75-187.5-112.519 0zM624.5 99.5l75 187.5 112.5 0-75-187.5-112.5 0zM924.5 212c0-66.284-46.216-112.5-112.5-112.5l75.001 187.5 37.499 0 0-75zM924.5 324.5l-824.999 0 0 487.5c0 66.284 46.216 112.5 112.5 112.5l600 0c66.284 0 112.5-46.216 112.5-112.5l0-487.5zM362 437l337.5 187.5-337.5 187.5 0-374.999z" p-id="1070"></path></svg>