<?xml version="1.0" standalone="no"?><!DOCTYPE svg PUBLIC "-//W3C//DTD SVG 1.1//EN" "http://www.w3.org/Graphics/SVG/1.1/DTD/svg11.dtd"><svg t="1535391088646" class="icon" style="" viewBox="0 0 1024 1024" version="1.1" xmlns="http://www.w3.org/2000/svg" p-id="2066" xmlns:xlink="http://www.w3.org/1999/xlink" width="128" height="128"><defs><style type="text/css"></style></defs><path d="M848.7 442.8l-142.4 94.9c0-28.8-13.1-54.3-33.4-71.7 48.2-29.1 80.8-81.5 80.8-141.9 0-91.8-74.4-166.1-166.1-166.1s-166.1 74.4-166.1 166.1c0 46.6 19.3 88.5 50.1 118.7h-87.1c22.7-25.2 37-58.3 37-94.9 0-78.6-63.8-142.4-142.4-142.4-78.7 0-142.4 63.8-142.4 142.4 0 42.9 19.4 80.9 49.4 107.1-29.3 16.2-49.4 47-49.4 82.8v189.9c0 52.4 42.5 94.9 94.9 94.9h379.8c52.4 0 94.9-42.5 94.9-94.9l142.4 94.9c26.2 0 47.5-21.3 47.5-47.5V490.3c0-26.2-21.3-47.5-47.5-47.5z m-569.6 0c-52.4 0-94.9-42.5-94.9-94.9 0-52.4 42.5-94.9 94.9-94.9 52.4 0 94.9 42.5 94.9 94.9 0 52.4-42.5 94.9-94.9 94.9z m308.5 0.3c-65.7 0-118.9-53.3-118.9-118.9 0-65.7 53.3-118.9 118.9-118.9s118.9 53.3 118.9 118.9c0.1 65.6-53.2 118.9-118.9 118.9z" p-id="2067"></path></svg>